<mxfile host="65bd71144e">
    <diagram name="Page-1" id="hHpF1baUSTz2clY-Ota8">
        <mxGraphModel dx="625" dy="656" grid="0" gridSize="1" guides="1" tooltips="1" connect="1" arrows="1" fold="1" page="1" pageScale="1" pageWidth="1100" pageHeight="850" background="#FFFFFF" math="0" shadow="0">
            <root>
                <mxCell id="0"/>
                <mxCell id="1" parent="0"/>
                <mxCell id="58" style="edgeStyle=orthogonalEdgeStyle;html=1;strokeColor=#000000;exitX=0;exitY=0.5;exitDx=0;exitDy=0;entryX=0.5;entryY=0;entryDx=0;entryDy=0;" parent="1" source="AFJ6fUOBSR2v7E0Lf3oa-3" target="11" edge="1">
                    <mxGeometry relative="1" as="geometry">
                        <mxPoint x="366" y="64" as="sourcePoint"/>
                        <mxPoint x="116" y="164" as="targetPoint"/>
                    </mxGeometry>
                </mxCell>
                <mxCell id="60" style="edgeStyle=orthogonalEdgeStyle;html=1;strokeColor=#000000;exitX=0.897;exitY=1.017;exitDx=0;exitDy=0;exitPerimeter=0;" parent="1" source="AFJ6fUOBSR2v7E0Lf3oa-3" target="41" edge="1">
                    <mxGeometry relative="1" as="geometry">
                        <mxPoint x="727" y="139" as="sourcePoint"/>
                        <Array as="points">
                            <mxPoint x="689" y="145"/>
                            <mxPoint x="757" y="145"/>
                        </Array>
                    </mxGeometry>
                </mxCell>
                <mxCell id="61" style="edgeStyle=orthogonalEdgeStyle;html=1;exitX=0;exitY=0.75;exitDx=0;exitDy=0;strokeColor=#000000;entryX=0.5;entryY=0;entryDx=0;entryDy=0;" parent="1" source="AFJ6fUOBSR2v7E0Lf3oa-3" target="27" edge="1">
                    <mxGeometry relative="1" as="geometry"/>
                </mxCell>
                <mxCell id="62" style="edgeStyle=orthogonalEdgeStyle;html=1;strokeColor=#000000;" parent="1" source="AFJ6fUOBSR2v7E0Lf3oa-3" target="47" edge="1">
                    <mxGeometry relative="1" as="geometry">
                        <mxPoint x="418" y="110" as="sourcePoint"/>
                        <Array as="points">
                            <mxPoint x="279" y="89"/>
                        </Array>
                    </mxGeometry>
                </mxCell>
                <mxCell id="63" style="edgeStyle=orthogonalEdgeStyle;html=1;exitX=0.589;exitY=1.05;exitDx=0;exitDy=0;strokeColor=#000000;exitPerimeter=0;" parent="1" source="AFJ6fUOBSR2v7E0Lf3oa-3" target="35" edge="1">
                    <mxGeometry relative="1" as="geometry"/>
                </mxCell>
                <mxCell id="119" value="" style="edgeStyle=none;html=1;" edge="1" parent="1" source="AFJ6fUOBSR2v7E0Lf3oa-3" target="113">
                    <mxGeometry relative="1" as="geometry"/>
                </mxCell>
                <mxCell id="AFJ6fUOBSR2v7E0Lf3oa-3" value="&lt;p class=&quot;MsoNormal&quot; style=&quot;font-size: 17px;&quot;&gt;Scooter Class Member Functions&lt;/p&gt;" style="rounded=1;whiteSpace=wrap;html=1;fillStyle=auto;strokeColor=#000000;fontColor=#000000;fillColor=#ffffff;fontSize=17;fontStyle=1" parent="1" vertex="1">
                    <mxGeometry x="375" y="30" width="350" height="60" as="geometry"/>
                </mxCell>
                <mxCell id="10" style="rounded=0;orthogonalLoop=1;jettySize=auto;html=1;fontSize=17;fontColor=#000000;startArrow=none;edgeStyle=orthogonalEdgeStyle;startFill=0;endArrow=none;endFill=0;strokeColor=#000000;" parent="1" source="11" target="12" edge="1">
                    <mxGeometry relative="1" as="geometry">
                        <mxPoint x="105.5" y="282" as="sourcePoint"/>
                    </mxGeometry>
                </mxCell>
                <mxCell id="79" value="" style="edgeStyle=none;html=1;" parent="1" source="11" edge="1">
                    <mxGeometry relative="1" as="geometry">
                        <mxPoint x="66" y="220" as="targetPoint"/>
                    </mxGeometry>
                </mxCell>
                <mxCell id="11" value="Scooter()" style="rounded=1;whiteSpace=wrap;html=1;fillStyle=auto;strokeColor=#000000;fontColor=#000000;fillColor=#ffffff;fontSize=13;fontStyle=1" parent="1" vertex="1">
                    <mxGeometry x="71" y="200" width="70" height="40" as="geometry"/>
                </mxCell>
                <mxCell id="12" value="&lt;p class=&quot;MsoNormal&quot;&gt;&lt;/p&gt;&lt;span class=&quot;notion-enable-hover&quot;&gt;&lt;span style=&quot;font-size:12.0pt;font-family:Consolas;mso-fareast-font-family:&amp;quot;Times New Roman&amp;quot;;&lt;br/&gt;mso-bidi-font-family:&amp;quot;Times New Roman&amp;quot;;mso-ansi-language:EN-US;mso-fareast-language:&lt;br/&gt;EN-US;mso-bidi-language:AR-SA&quot;&gt;Scooter(string userTypeAndModel, float&lt;br/&gt;userMaxSpeed)&lt;/span&gt;&lt;/span&gt;&lt;span&gt;&lt;br&gt;&lt;/span&gt;" style="rounded=0;whiteSpace=wrap;html=1;fillStyle=auto;strokeColor=#000000;fontSize=11;fontColor=#000000;fillColor=#ffffff;align=left;verticalAlign=top;" parent="1" vertex="1">
                    <mxGeometry x="61" y="320" width="99" height="69" as="geometry"/>
                </mxCell>
                <mxCell id="26" style="rounded=0;orthogonalLoop=1;jettySize=auto;html=1;fontSize=17;fontColor=#000000;startArrow=none;edgeStyle=orthogonalEdgeStyle;startFill=0;endArrow=none;endFill=0;strokeColor=#000000;" parent="1" source="27" target="28" edge="1">
                    <mxGeometry relative="1" as="geometry">
                        <mxPoint x="194" y="282" as="sourcePoint"/>
                    </mxGeometry>
                </mxCell>
                <mxCell id="27" value="getType()" style="rounded=1;whiteSpace=wrap;html=1;fillStyle=auto;strokeColor=#000000;fontColor=#000000;fillColor=#ffffff;fontSize=13;fontStyle=1" parent="1" vertex="1">
                    <mxGeometry x="162" y="200" width="64" height="40" as="geometry"/>
                </mxCell>
                <mxCell id="28" value="&lt;p class=&quot;MsoNormal&quot;&gt;&lt;/p&gt;string&lt;br&gt;&lt;span&gt;getType()&lt;br&gt;&lt;/span&gt;" style="rounded=0;whiteSpace=wrap;html=1;fillStyle=auto;strokeColor=#000000;fontSize=11;fontColor=#000000;fillColor=#ffffff;align=left;verticalAlign=top;" parent="1" vertex="1">
                    <mxGeometry x="165" y="320" width="59" height="54" as="geometry"/>
                </mxCell>
                <mxCell id="34" style="rounded=0;orthogonalLoop=1;jettySize=auto;html=1;exitX=0.5;exitY=1;exitDx=0;exitDy=0;fontSize=17;fontColor=#000000;startArrow=none;edgeStyle=orthogonalEdgeStyle;startFill=0;endArrow=none;endFill=0;strokeColor=#000000;" parent="1" source="35" target="36" edge="1">
                    <mxGeometry relative="1" as="geometry">
                        <mxPoint x="573" y="282" as="sourcePoint"/>
                    </mxGeometry>
                </mxCell>
                <mxCell id="35" value="&lt;span style=&quot;font-size:12.0pt;font-family:&amp;quot;Times New Roman&amp;quot;,serif;&lt;br/&gt;mso-fareast-font-family:&amp;quot;Times New Roman&amp;quot;;mso-ansi-language:EN-US;mso-fareast-language:&lt;br/&gt;EN-US;mso-bidi-language:AR-SA&quot;&gt;getCurrentSpeed&lt;/span&gt;" style="rounded=1;whiteSpace=wrap;html=1;fillStyle=auto;strokeColor=#000000;fontColor=#000000;fillColor=#ffffff;fontSize=13;fontStyle=1" parent="1" vertex="1">
                    <mxGeometry x="518" y="200" width="110" height="40" as="geometry"/>
                </mxCell>
                <mxCell id="36" value="&lt;p class=&quot;MsoNormal&quot;&gt;&lt;/p&gt;float&lt;br&gt;&lt;span style=&quot;font-size:12.0pt;font-family:&amp;quot;Times New Roman&amp;quot;,serif;&lt;br/&gt;mso-fareast-font-family:&amp;quot;Times New Roman&amp;quot;;mso-ansi-language:EN-US;mso-fareast-language:&lt;br/&gt;EN-US;mso-bidi-language:AR-SA&quot;&gt;getCurrentSpeed()&lt;/span&gt;&lt;span&gt;&lt;br&gt;&lt;/span&gt;" style="rounded=0;whiteSpace=wrap;html=1;fillStyle=auto;strokeColor=#000000;fontSize=11;fontColor=#000000;fillColor=#ffffff;align=left;verticalAlign=top;" parent="1" vertex="1">
                    <mxGeometry x="526" y="320" width="95" height="63" as="geometry"/>
                </mxCell>
                <mxCell id="40" style="rounded=0;orthogonalLoop=1;jettySize=auto;html=1;exitX=0.5;exitY=1;exitDx=0;exitDy=0;fontSize=17;fontColor=#000000;startArrow=none;edgeStyle=orthogonalEdgeStyle;startFill=0;endArrow=none;endFill=0;strokeColor=#000000;" parent="1" source="45" target="42" edge="1">
                    <mxGeometry relative="1" as="geometry"/>
                </mxCell>
                <mxCell id="41" value="speedUp()" style="rounded=1;whiteSpace=wrap;html=1;fillStyle=auto;strokeColor=#000000;fontColor=#000000;fillColor=#ffffff;fontSize=13;fontStyle=1" parent="1" vertex="1">
                    <mxGeometry x="744" y="200" width="68" height="40" as="geometry"/>
                </mxCell>
                <mxCell id="42" value="&lt;p class=&quot;MsoNormal&quot;&gt;&lt;/p&gt;void&lt;br&gt;&lt;span&gt;speedUp&lt;/span&gt;()&lt;span&gt;&lt;br&gt;&lt;/span&gt;" style="rounded=0;whiteSpace=wrap;html=1;fillStyle=auto;strokeColor=#000000;fontSize=11;fontColor=#000000;fillColor=#ffffff;align=left;verticalAlign=top;" parent="1" vertex="1">
                    <mxGeometry x="751" y="320" width="55" height="54" as="geometry"/>
                </mxCell>
                <mxCell id="44" value="" style="rounded=0;orthogonalLoop=1;jettySize=auto;html=1;exitX=0.5;exitY=1;exitDx=0;exitDy=0;fontSize=17;fontColor=#000000;endArrow=none;edgeStyle=orthogonalEdgeStyle;startArrow=none;startFill=0;endFill=0;strokeColor=#000000;" parent="1" source="41" target="45" edge="1">
                    <mxGeometry relative="1" as="geometry">
                        <mxPoint x="830" y="240" as="sourcePoint"/>
                        <mxPoint x="839" y="320" as="targetPoint"/>
                    </mxGeometry>
                </mxCell>
                <mxCell id="45" value="" style="html=1;whiteSpace=wrap;aspect=fixed;shape=isoRectangle;fillStyle=auto;strokeColor=#000000;fontSize=17;fontColor=#000000;fillColor=#ffffff;" parent="1" vertex="1">
                    <mxGeometry x="768" y="270" width="20" height="12" as="geometry"/>
                </mxCell>
                <mxCell id="46" style="rounded=0;orthogonalLoop=1;jettySize=auto;html=1;fontSize=17;fontColor=#000000;startArrow=none;edgeStyle=orthogonalEdgeStyle;startFill=0;endArrow=none;endFill=0;strokeColor=#000000;" parent="1" source="47" target="48" edge="1">
                    <mxGeometry relative="1" as="geometry">
                        <mxPoint x="279" y="282" as="sourcePoint"/>
                    </mxGeometry>
                </mxCell>
                <mxCell id="47" value="setType&lt;br&gt;" style="rounded=1;whiteSpace=wrap;html=1;fillStyle=auto;strokeColor=#000000;fontColor=#000000;fillColor=#ffffff;fontSize=13;fontStyle=1" parent="1" vertex="1">
                    <mxGeometry x="242" y="200" width="74" height="40" as="geometry"/>
                </mxCell>
                <mxCell id="48" value="&lt;p class=&quot;MsoNormal&quot;&gt;&lt;/p&gt;string&lt;br&gt;&lt;span class=&quot;notion-enable-hover&quot;&gt;&lt;span&gt;setType(string userTypeAndModel)&lt;/span&gt;&lt;/span&gt;&lt;span&gt;&lt;br&gt;&lt;/span&gt;" style="rounded=0;whiteSpace=wrap;html=1;fillStyle=auto;strokeColor=#000000;fontSize=11;fontColor=#000000;fillColor=#ffffff;align=left;verticalAlign=top;" parent="1" vertex="1">
                    <mxGeometry x="229" y="320" width="101" height="74" as="geometry"/>
                </mxCell>
                <mxCell id="65" style="edgeStyle=orthogonalEdgeStyle;html=1;exitX=0;exitY=0.25;exitDx=0;exitDy=0;entryX=0.5;entryY=0;entryDx=0;entryDy=0;strokeColor=#000000;" parent="1" source="AFJ6fUOBSR2v7E0Lf3oa-3" target="67" edge="1">
                    <mxGeometry relative="1" as="geometry">
                        <mxPoint x="245" y="45" as="sourcePoint"/>
                    </mxGeometry>
                </mxCell>
                <mxCell id="67" value="Scooter()" style="rounded=1;whiteSpace=wrap;html=1;fillStyle=auto;strokeColor=#000000;fontColor=#000000;fillColor=#ffffff;fontSize=13;fontStyle=1" parent="1" vertex="1">
                    <mxGeometry x="1" y="200" width="59" height="40" as="geometry"/>
                </mxCell>
                <mxCell id="68" value="&lt;p class=&quot;MsoNormal&quot;&gt;&lt;/p&gt;Scooter()&lt;span&gt;&lt;br&gt;&lt;/span&gt;" style="rounded=0;whiteSpace=wrap;html=1;fillStyle=auto;strokeColor=#000000;fontSize=11;fontColor=#000000;fillColor=#ffffff;align=left;verticalAlign=top;" parent="1" vertex="1">
                    <mxGeometry x="3.5" y="323" width="53.5" height="50.95" as="geometry"/>
                </mxCell>
                <mxCell id="70" value="" style="rounded=0;orthogonalLoop=1;jettySize=auto;html=1;exitX=0.5;exitY=1;exitDx=0;exitDy=0;fontSize=17;fontColor=#000000;endArrow=none;edgeStyle=orthogonalEdgeStyle;startArrow=none;startFill=0;endFill=0;strokeColor=#000000;entryX=0.5;entryY=0;entryDx=0;entryDy=0;" parent="1" source="67" target="68" edge="1">
                    <mxGeometry relative="1" as="geometry">
                        <mxPoint x="115.5" y="240" as="sourcePoint"/>
                        <mxPoint x="30.5" y="270" as="targetPoint"/>
                    </mxGeometry>
                </mxCell>
                <mxCell id="72" style="edgeStyle=orthogonalEdgeStyle;html=1;exitX=1;exitY=0.25;exitDx=0;exitDy=0;strokeColor=#000000;" parent="1" target="74" edge="1" source="AFJ6fUOBSR2v7E0Lf3oa-3">
                    <mxGeometry relative="1" as="geometry">
                        <mxPoint x="862" y="45" as="sourcePoint"/>
                    </mxGeometry>
                </mxCell>
                <mxCell id="73" style="rounded=0;orthogonalLoop=1;jettySize=auto;html=1;exitX=0.5;exitY=1;exitDx=0;exitDy=0;fontSize=17;fontColor=#000000;startArrow=none;edgeStyle=orthogonalEdgeStyle;startFill=0;endArrow=none;endFill=0;strokeColor=#000000;" parent="1" source="78" target="75" edge="1">
                    <mxGeometry relative="1" as="geometry"/>
                </mxCell>
                <mxCell id="74" value="display&lt;br&gt;Speed()" style="rounded=1;whiteSpace=wrap;html=1;fillStyle=auto;strokeColor=#000000;fontColor=#000000;fillColor=#ffffff;fontSize=13;fontStyle=1" parent="1" vertex="1">
                    <mxGeometry x="1013" y="200" width="80" height="40" as="geometry"/>
                </mxCell>
                <mxCell id="75" value="&lt;p class=&quot;MsoNormal&quot;&gt;&lt;/p&gt;void&lt;br&gt;displaySpeed()&lt;span&gt;&lt;br&gt;&lt;/span&gt;" style="rounded=0;whiteSpace=wrap;html=1;fillStyle=auto;strokeColor=#000000;fontSize=11;fontColor=#000000;fillColor=#ffffff;align=left;verticalAlign=top;" parent="1" vertex="1">
                    <mxGeometry x="1014" y="320" width="79" height="54" as="geometry"/>
                </mxCell>
                <mxCell id="76" value="" style="endArrow=classic;html=1;rounded=1;strokeWidth=1;fontSize=17;fontColor=#000000;startSize=6;endSize=4;entryX=1.026;entryY=0.435;entryDx=0;entryDy=0;entryPerimeter=0;exitX=-0.109;exitY=0.496;exitDx=0;exitDy=0;exitPerimeter=0;strokeColor=#000000;" parent="1" source="78" target="78" edge="1">
                    <mxGeometry width="50" height="50" relative="1" as="geometry">
                        <mxPoint x="1013" y="290" as="sourcePoint"/>
                        <mxPoint x="1103" y="270" as="targetPoint"/>
                        <Array as="points">
                            <mxPoint x="1033" y="280"/>
                            <mxPoint x="1040" y="290"/>
                            <mxPoint x="1063" y="290"/>
                            <mxPoint x="1073" y="280"/>
                        </Array>
                    </mxGeometry>
                </mxCell>
                <mxCell id="77" value="" style="rounded=0;orthogonalLoop=1;jettySize=auto;html=1;exitX=0.5;exitY=1;exitDx=0;exitDy=0;fontSize=17;fontColor=#000000;endArrow=none;edgeStyle=orthogonalEdgeStyle;startArrow=none;startFill=0;endFill=0;strokeColor=#000000;" parent="1" source="74" target="78" edge="1">
                    <mxGeometry relative="1" as="geometry">
                        <mxPoint x="1105" y="240" as="sourcePoint"/>
                        <mxPoint x="1114" y="320" as="targetPoint"/>
                    </mxGeometry>
                </mxCell>
                <mxCell id="78" value="" style="html=1;whiteSpace=wrap;aspect=fixed;shape=isoRectangle;fillStyle=auto;strokeColor=#000000;fontSize=17;fontColor=#000000;fillColor=#ffffff;" parent="1" vertex="1">
                    <mxGeometry x="1043" y="270" width="20" height="12" as="geometry"/>
                </mxCell>
                <mxCell id="93" style="edgeStyle=orthogonalEdgeStyle;html=1;strokeColor=#000000;exitX=0.25;exitY=1;exitDx=0;exitDy=0;" parent="1" source="AFJ6fUOBSR2v7E0Lf3oa-3" target="94" edge="1">
                    <mxGeometry relative="1" as="geometry">
                        <mxPoint x="539" y="141" as="sourcePoint"/>
                        <Array as="points">
                            <mxPoint x="463" y="145"/>
                            <mxPoint x="405" y="145"/>
                        </Array>
                    </mxGeometry>
                </mxCell>
                <mxCell id="94" value="&lt;span class=&quot;notion-enable-hover&quot;&gt;&lt;span style=&quot;font-size:12.0pt;font-family:Consolas;mso-fareast-font-family:&amp;quot;Times New Roman&amp;quot;;&lt;br/&gt;mso-bidi-font-family:&amp;quot;Times New Roman&amp;quot;;mso-ansi-language:EN-US;mso-fareast-language:&lt;br/&gt;EN-US;mso-bidi-language:AR-SA&quot;&gt;getMaxSpeed()&lt;br&gt;&lt;/span&gt;&lt;/span&gt;" style="rounded=1;whiteSpace=wrap;html=1;fillStyle=auto;strokeColor=#000000;fontColor=#000000;fillColor=#ffffff;fontSize=13;fontStyle=1" parent="1" vertex="1">
                    <mxGeometry x="320" y="200" width="96" height="40" as="geometry"/>
                </mxCell>
                <mxCell id="96" value="&lt;p class=&quot;MsoNormal&quot;&gt;&lt;/p&gt;float&lt;br&gt;getMaxSpeed" style="rounded=0;whiteSpace=wrap;html=1;fillStyle=auto;strokeColor=#000000;fontSize=11;fontColor=#000000;fillColor=#ffffff;align=left;verticalAlign=top;" parent="1" vertex="1">
                    <mxGeometry x="336" y="320" width="77" height="59" as="geometry"/>
                </mxCell>
                <mxCell id="107" style="rounded=0;orthogonalLoop=1;jettySize=auto;html=1;exitX=0.5;exitY=1;exitDx=0;exitDy=0;fontSize=17;fontColor=#000000;startArrow=none;edgeStyle=orthogonalEdgeStyle;startFill=0;endArrow=none;endFill=0;strokeColor=#000000;" parent="1" source="94" edge="1">
                    <mxGeometry relative="1" as="geometry">
                        <mxPoint x="377.4705882352944" y="321" as="targetPoint"/>
                        <mxPoint x="377" y="283" as="sourcePoint"/>
                        <Array as="points">
                            <mxPoint x="376" y="281"/>
                            <mxPoint x="378" y="281"/>
                        </Array>
                    </mxGeometry>
                </mxCell>
                <mxCell id="112" style="edgeStyle=orthogonalEdgeStyle;html=1;strokeColor=#000000;exitX=0.44;exitY=1;exitDx=0;exitDy=0;exitPerimeter=0;" parent="1" source="AFJ6fUOBSR2v7E0Lf3oa-3" target="113" edge="1">
                    <mxGeometry relative="1" as="geometry">
                        <mxPoint x="631.2999999999997" y="90.36000000000001" as="sourcePoint"/>
                        <mxPoint x="595.0588235294117" y="200" as="targetPoint"/>
                    </mxGeometry>
                </mxCell>
                <mxCell id="113" value="&lt;span style=&quot;font-size:12.0pt;font-family:&amp;quot;Times New Roman&amp;quot;,serif;&lt;br/&gt;mso-fareast-font-family:&amp;quot;Times New Roman&amp;quot;;mso-ansi-language:EN-US;mso-fareast-language:&lt;br/&gt;EN-US;mso-bidi-language:AR-SA&quot;&gt;setMaxSpeed()&lt;/span&gt;" style="rounded=1;whiteSpace=wrap;html=1;fillStyle=auto;strokeColor=#000000;fontColor=#000000;fillColor=#ffffff;fontSize=13;fontStyle=1" parent="1" vertex="1">
                    <mxGeometry x="419" y="200" width="96" height="40" as="geometry"/>
                </mxCell>
                <mxCell id="114" value="&lt;p class=&quot;MsoNormal&quot;&gt;&lt;/p&gt;&lt;span style=&quot;font-size:12.0pt;font-family:&amp;quot;Times New Roman&amp;quot;,serif;&lt;br/&gt;mso-fareast-font-family:&amp;quot;Times New Roman&amp;quot;;mso-ansi-language:EN-US;mso-fareast-language:&lt;br/&gt;EN-US;mso-bidi-language:AR-SA&quot;&gt;void&lt;br&gt;setMaxSpeed(float userMaxSpeed)&lt;/span&gt;" style="rounded=0;whiteSpace=wrap;html=1;fillStyle=auto;strokeColor=#000000;fontSize=11;fontColor=#000000;fillColor=#ffffff;align=left;verticalAlign=top;" parent="1" vertex="1">
                    <mxGeometry x="418" y="322" width="99" height="70" as="geometry"/>
                </mxCell>
                <mxCell id="115" style="rounded=0;orthogonalLoop=1;jettySize=auto;html=1;fontSize=17;fontColor=#000000;startArrow=none;edgeStyle=orthogonalEdgeStyle;startFill=0;endArrow=none;endFill=0;strokeColor=#000000;entryX=0.444;entryY=0.029;entryDx=0;entryDy=0;entryPerimeter=0;" parent="1" source="113" edge="1" target="114">
                    <mxGeometry relative="1" as="geometry">
                        <mxPoint x="468.4705882352944" y="321" as="targetPoint"/>
                        <mxPoint x="468" y="283" as="sourcePoint"/>
                    </mxGeometry>
                </mxCell>
                <mxCell id="123" style="edgeStyle=orthogonalEdgeStyle;html=1;strokeColor=#000000;exitX=0.734;exitY=1;exitDx=0;exitDy=0;exitPerimeter=0;" edge="1" target="125" parent="1" source="AFJ6fUOBSR2v7E0Lf3oa-3">
                    <mxGeometry relative="1" as="geometry">
                        <mxPoint x="663" y="87" as="sourcePoint"/>
                    </mxGeometry>
                </mxCell>
                <mxCell id="124" style="rounded=0;orthogonalLoop=1;jettySize=auto;html=1;exitX=0.5;exitY=1;exitDx=0;exitDy=0;fontSize=17;fontColor=#000000;startArrow=none;edgeStyle=orthogonalEdgeStyle;startFill=0;endArrow=none;endFill=0;strokeColor=#000000;" edge="1" source="125" target="126" parent="1">
                    <mxGeometry relative="1" as="geometry">
                        <mxPoint x="686" y="282" as="sourcePoint"/>
                    </mxGeometry>
                </mxCell>
                <mxCell id="125" value="&lt;span&gt;setCurrentSpeed&lt;/span&gt;" style="rounded=1;whiteSpace=wrap;html=1;fillStyle=auto;strokeColor=#000000;fontColor=#000000;fillColor=#ffffff;fontSize=13;fontStyle=1" vertex="1" parent="1">
                    <mxGeometry x="631" y="200" width="110" height="40" as="geometry"/>
                </mxCell>
                <mxCell id="126" value="&lt;p class=&quot;MsoNormal&quot;&gt;&lt;/p&gt;float&lt;br&gt;&lt;span&gt;setCurrentSpeed(&lt;br&gt;&lt;/span&gt;&lt;span style=&quot;font-size:12.0pt;font-family:&amp;quot;Times New Roman&amp;quot;,serif;&lt;br/&gt;mso-fareast-font-family:&amp;quot;Times New Roman&amp;quot;;mso-ansi-language:EN-US;mso-fareast-language:&lt;br/&gt;EN-US;mso-bidi-language:AR-SA&quot;&gt;float userCurrentSpeed)&amp;nbsp;&lt;/span&gt;&lt;span&gt;&lt;br&gt;&lt;/span&gt;" style="rounded=0;whiteSpace=wrap;html=1;fillStyle=auto;strokeColor=#000000;fontSize=11;fontColor=#000000;fillColor=#ffffff;align=left;verticalAlign=top;" vertex="1" parent="1">
                    <mxGeometry x="639" y="320" width="95" height="86" as="geometry"/>
                </mxCell>
                <mxCell id="127" style="rounded=0;orthogonalLoop=1;jettySize=auto;html=1;exitX=0.5;exitY=1;exitDx=0;exitDy=0;fontSize=17;fontColor=#000000;startArrow=none;edgeStyle=orthogonalEdgeStyle;startFill=0;endArrow=none;endFill=0;strokeColor=#000000;" edge="1" source="131" target="129" parent="1">
                    <mxGeometry relative="1" as="geometry"/>
                </mxCell>
                <mxCell id="128" value="slowDown()" style="rounded=1;whiteSpace=wrap;html=1;fillStyle=auto;strokeColor=#000000;fontColor=#000000;fillColor=#ffffff;fontSize=13;fontStyle=1" vertex="1" parent="1">
                    <mxGeometry x="823" y="200" width="81" height="40" as="geometry"/>
                </mxCell>
                <mxCell id="129" value="&lt;p class=&quot;MsoNormal&quot;&gt;&lt;/p&gt;void&lt;br&gt;&lt;span&gt;slowDown&lt;/span&gt;()&lt;span&gt;&lt;br&gt;&lt;/span&gt;" style="rounded=0;whiteSpace=wrap;html=1;fillStyle=auto;strokeColor=#000000;fontSize=11;fontColor=#000000;fillColor=#ffffff;align=left;verticalAlign=top;direction=south;" vertex="1" parent="1">
                    <mxGeometry x="828" y="316.65" width="72" height="60.7" as="geometry"/>
                </mxCell>
                <mxCell id="130" value="" style="rounded=0;orthogonalLoop=1;jettySize=auto;html=1;exitX=0.5;exitY=1;exitDx=0;exitDy=0;fontSize=17;fontColor=#000000;endArrow=none;edgeStyle=orthogonalEdgeStyle;startArrow=none;startFill=0;endFill=0;strokeColor=#000000;" edge="1" source="128" target="131" parent="1">
                    <mxGeometry relative="1" as="geometry">
                        <mxPoint x="915.5" y="240" as="sourcePoint"/>
                        <mxPoint x="924.5" y="320" as="targetPoint"/>
                    </mxGeometry>
                </mxCell>
                <mxCell id="131" value="" style="html=1;whiteSpace=wrap;aspect=fixed;shape=isoRectangle;fillStyle=auto;strokeColor=#000000;fontSize=17;fontColor=#000000;fillColor=#ffffff;" vertex="1" parent="1">
                    <mxGeometry x="853.5" y="270" width="20" height="12" as="geometry"/>
                </mxCell>
                <mxCell id="132" style="edgeStyle=orthogonalEdgeStyle;html=1;exitX=1;exitY=0.75;exitDx=0;exitDy=0;strokeColor=#000000;entryX=0.5;entryY=0;entryDx=0;entryDy=0;" edge="1" target="128" parent="1" source="AFJ6fUOBSR2v7E0Lf3oa-3">
                    <mxGeometry relative="1" as="geometry">
                        <mxPoint x="787.9999999999999" y="90" as="sourcePoint"/>
                    </mxGeometry>
                </mxCell>
                <mxCell id="133" style="rounded=0;orthogonalLoop=1;jettySize=auto;html=1;exitX=0.5;exitY=1;exitDx=0;exitDy=0;fontSize=17;fontColor=#000000;startArrow=none;edgeStyle=orthogonalEdgeStyle;startFill=0;endArrow=none;endFill=0;strokeColor=#000000;" edge="1" source="137" target="135" parent="1">
                    <mxGeometry relative="1" as="geometry"/>
                </mxCell>
                <mxCell id="134" value="hardStop()" style="rounded=1;whiteSpace=wrap;html=1;fillStyle=auto;strokeColor=#000000;fontColor=#000000;fillColor=#ffffff;fontSize=13;fontStyle=1" vertex="1" parent="1">
                    <mxGeometry x="933" y="200" width="73" height="40" as="geometry"/>
                </mxCell>
                <mxCell id="135" value="&lt;p class=&quot;MsoNormal&quot;&gt;&lt;/p&gt;void&lt;br&gt;&lt;span&gt;hardStop&lt;/span&gt;()&lt;span&gt;&lt;br&gt;&lt;/span&gt;" style="rounded=0;whiteSpace=wrap;html=1;fillStyle=auto;strokeColor=#000000;fontSize=11;fontColor=#000000;fillColor=#ffffff;align=left;verticalAlign=top;direction=south;" vertex="1" parent="1">
                    <mxGeometry x="943" y="316.65" width="54" height="60.7" as="geometry"/>
                </mxCell>
                <mxCell id="136" value="" style="rounded=0;orthogonalLoop=1;jettySize=auto;html=1;exitX=0.5;exitY=1;exitDx=0;exitDy=0;fontSize=17;fontColor=#000000;endArrow=none;edgeStyle=orthogonalEdgeStyle;startArrow=none;startFill=0;endFill=0;strokeColor=#000000;" edge="1" source="134" target="137" parent="1">
                    <mxGeometry relative="1" as="geometry">
                        <mxPoint x="1021.5" y="240" as="sourcePoint"/>
                        <mxPoint x="1030.5" y="320" as="targetPoint"/>
                    </mxGeometry>
                </mxCell>
                <mxCell id="137" value="" style="html=1;whiteSpace=wrap;aspect=fixed;shape=isoRectangle;fillStyle=auto;strokeColor=#000000;fontSize=17;fontColor=#000000;fillColor=#ffffff;" vertex="1" parent="1">
                    <mxGeometry x="959.5" y="270" width="20" height="12" as="geometry"/>
                </mxCell>
                <mxCell id="138" style="edgeStyle=orthogonalEdgeStyle;html=1;exitX=1;exitY=0.5;exitDx=0;exitDy=0;strokeColor=#000000;entryX=0.5;entryY=0;entryDx=0;entryDy=0;" edge="1" target="134" parent="1" source="AFJ6fUOBSR2v7E0Lf3oa-3">
                    <mxGeometry relative="1" as="geometry">
                        <mxPoint x="810" y="90" as="sourcePoint"/>
                        <Array as="points">
                            <mxPoint x="929" y="60"/>
                            <mxPoint x="929" y="200"/>
                        </Array>
                    </mxGeometry>
                </mxCell>
            </root>
        </mxGraphModel>
    </diagram>
</mxfile>